Coordinates
version=1
nRows=16
nColumns=36
inDegrees=yes

Units are S.I. units (second, meters, Newtons, ...)
If the header above contains a line with 'inDegrees', this indicates whether rotational values are in degrees (yes) or radians (no).

endheader
time	pelvis_tilt	pelvis_list	pelvis_rotation	pelvis_tx	pelvis_ty	pelvis_tz	hip_flexion_r	hip_adduction_r	hip_rotation_r	knee_angle_r	knee_angle_r_beta	ankle_angle_r	subtalar_angle_r	mtp_angle_r	hip_flexion_l	hip_adduction_l	hip_rotation_l	knee_angle_l	knee_angle_l_beta	ankle_angle_l	subtalar_angle_l	mtp_angle_l	lumbar_extension	lumbar_bending	lumbar_rotation	arm_flex_r	arm_add_r	arm_rot_r	elbow_flex_r	pro_sup_r	arm_flex_l	arm_add_l	arm_rot_l	elbow_flex_l	pro_sup_l
      3.43750000	    -28.97218225	     -1.46652644	      0.92514799	      0.06703970	      0.69825370	     -0.07831624	     84.92848312	     -9.77685735	     -3.25991182	     82.67346167	      1.44292411	     26.03921349	    -20.84302917	     -7.49999987	     84.81865102	     -7.58173552	      2.06766112	     83.27047569	      1.45334397	     22.51268535	    -20.86615145	     -7.49999987	    -49.63423808	      1.30893884	     -4.08838064	     16.42835041	    -12.16742360	    -50.47367879	     50.48808578	     88.18444867	     28.91197989	    -27.04176029	     -1.33095867	     16.83536875	     64.77667968
      3.44166670	    -29.52014392	     -1.52171953	      0.76638923	      0.06271467	      0.69549994	     -0.07578623	     85.72908650	     -9.50086049	     -3.47757470	     82.95180377	      1.44778210	     25.97003800	    -21.46515967	     -7.49999987	     85.54488230	     -8.04068493	      1.94361899	     83.33208098	      1.45441919	     22.92691278	    -20.25680865	     -7.49999987	    -49.01179925	      1.05522678	     -4.34247705	     17.98043576	    -13.42705970	    -64.77010396	     73.81339608	     83.80779042	     28.03608129	    -27.39336236	     -5.41409894	     16.95373842	     65.89753612
      3.44583330	    -29.59204875	     -1.48344407	      0.64842700	      0.06512348	      0.69463700	     -0.08315706	     86.06074383	     -9.60369452	     -3.49897124	     83.19880546	      1.45209309	     26.08271800	    -21.57215715	     -7.49999987	     85.88057008	     -8.15699433	      1.67445772	     83.59633325	      1.45903126	     23.37083885	    -19.77949367	     -7.49999987	    -49.26412454	      1.47666495	     -4.64339574	     20.91275688	    -16.96440119	    -69.31203754	     85.40516042	     81.12444264	     26.81950178	    -26.57920803	     -5.18494219	     17.50467540	     66.43574419
      3.45000000	    -29.70291915	     -1.47287764	      0.53201316	      0.06624259	      0.69470013	     -0.08735812	     86.18770192	     -9.85138666	     -3.47217535	     83.10137888	      1.45039267	     26.20030710	    -21.15940230	     -7.49999987	     86.05602799	     -8.07743400	      1.47050061	     83.75888146	      1.46186826	     23.92512745	    -19.33561576	     -7.49999987	    -49.40133051	      1.65073782	     -4.10416239	     21.38743204	    -19.53479946	    -72.40301527	     91.11640973	     59.78182413	     27.38508158	    -25.14203844	     -2.28617307	     15.58540153	     68.61677463
      3.45416670	    -29.88347771	     -1.47712804	      0.44565599	      0.06365081	      0.69435241	     -0.08494029	     86.40004189	    -10.02192473	     -3.48068687	     82.93630053	      1.44751151	     26.29072516	    -20.70032946	     -7.49999987	     86.31413175	     -8.05929746	      1.38455164	     83.81397083	      1.46282975	     24.24201175	    -19.01983368	     -7.49999987	    -49.51588951	      1.70912601	     -4.61561730	     22.26163614	    -19.72299413	    -73.26800182	     92.81313367	     59.73581503	     26.87159373	    -24.50516394	     -2.58654911	     15.20705378	     68.47235697
      3.45833330	    -29.90144476	     -1.41105098	      0.36193412	      0.06155240	      0.69551993	     -0.08375173	     86.49761334	    -10.02945536	     -3.39936416	     82.71322830	      1.44361817	     26.28469515	    -20.41374841	     -7.49999987	     86.38364598	     -8.12570848	      1.24733888	     83.77200768	      1.46209735	     24.31389757	    -18.84625149	     -7.49999987	    -50.33840128	      1.39632273	     -4.50500823	     22.74435728	    -19.06990183	    -72.49931997	     92.12889502	     59.76649181	     27.22567022	    -23.96366572	     -2.66549964	     16.35925897	     68.00057828
      3.46250000	    -30.08094095	     -1.34920613	      0.40011493	      0.06260214	      0.69671567	     -0.08755728	     86.64338035	    -10.29968846	     -3.46949373	     82.56991468	      1.44111687	     26.34677266	    -19.57394975	     -7.49999987	     86.53728165	     -7.98962894	      1.09763911	     83.62298440	      1.45949641	     24.17283126	    -18.50320423	     -7.49999987	    -50.67904641	      1.50078131	     -5.08261754	     23.66039124	    -17.51241470	    -70.76301423	     91.13928746	     59.93391014	     27.77564096	    -23.23605083	     -4.43903598	     14.67353228	     67.14323186
      3.46666670	    -30.26223004	     -1.23968944	      0.30227418	      0.06156621	      0.69441904	     -0.08932573	     86.98165571	    -10.51076661	     -3.47206382	     82.58462569	      1.44137363	     26.18179783	    -19.34397992	     -7.49999987	     86.76318188	     -7.88148842	      0.94225046	     83.65592642	      1.46007135	     24.32623227	    -18.37560406	     -7.49999987	    -51.12647074	      1.44079480	     -5.35001446	     24.15479471	    -16.23791419	    -70.03818046	     89.93996892	     59.98958596	     27.67164920	    -22.67798572	     -5.30863059	     15.36909039	     66.61188058
      3.47083330	    -30.38026045	     -1.14933566	      0.24509252	      0.06319501	      0.69105277	     -0.08760337	     87.34397988	    -10.67145370	     -3.44046555	     82.92596536	      1.44733113	     26.38847632	    -18.93465931	     -7.49999987	     86.97806919	     -7.85034032	      0.86218281	     83.90567652	      1.46443032	     24.59400484	    -18.30562769	     -7.49999987	    -51.46149814	      1.32888612	     -5.87540281	     24.26725178	    -14.60176143	    -69.25784346	     88.55606756	     60.44786134	     27.03071649	    -22.14867182	     -9.05570656	     16.18292317	     66.70255140
      3.47500000	    -30.61331050	     -1.16836301	      0.24295130	      0.06301044	      0.69176729	     -0.08534809	     87.59473840	    -10.64213474	     -3.50263787	     83.03478459	      1.44923038	     26.57939210	    -18.60812032	     -7.49999987	     87.28745980	     -7.97628541	      0.88326016	     84.06212463	      1.46716085	     24.61108318	    -18.30745129	     -7.49999987	    -51.64281088	      1.21066956	     -5.87860305	     23.94425296	    -13.01710281	    -69.26472291	     87.48422594	     60.40626249	     26.80514181	    -21.92389543	     -8.75433980	     16.59142562	     66.67851745
      3.47916670	    -30.65780252	     -1.19292395	      0.23657350	      0.06336984	      0.69239390	     -0.09035178	     87.57539543	    -10.76206527	     -3.52799308	     83.06293318	      1.44972167	     26.55653427	    -18.52009682	     -7.49999987	     87.33109914	     -7.89663982	      0.85164042	     84.13846085	      1.46849317	     24.70336093	    -18.33711802	     -7.49999987	    -52.03424546	      1.28565946	     -5.76858200	     23.70786826	    -11.79953296	    -69.10483269	     86.66832504	     60.38858850	     26.95712555	    -21.17848298	     -8.54470031	     16.64909085	     66.75947098
      3.48333330	    -30.49749812	     -1.21393114	      0.12629509	      0.06515653	      0.68531949	     -0.09246699	     87.69310879	    -10.94894617	     -3.54624706	     83.62864332	      1.45959517	     26.89484701	    -18.38670269	     -7.49999987	     87.43282429	     -7.84746807	      0.94284454	     84.73460338	      1.47889782	     25.28982770	    -18.48371292	     -7.49999987	    -52.43812571	      1.28640947	     -5.70516496	     23.32323864	    -10.90504388	    -69.18319698	     85.26581546	     60.34215854	     26.44280698	    -20.56885249	     -8.44351026	     17.16427740	     66.69921093
      3.48750000	    -30.86110353	     -1.30079154	      0.14587811	      0.06345531	      0.68697009	     -0.08768202	     88.19557364	    -11.03242934	     -3.58791657	     83.82422697	      1.46300875	     27.30391340	    -17.70381820	     -7.49999987	     87.96612706	     -7.86971162	      1.02304525	     85.03898113	      1.48421021	     25.50107357	    -18.23567152	     -7.49999987	    -52.09464783	      1.05894776	     -5.67180999	     23.03067538	     -9.94782163	    -68.95233526	     81.95799327	     60.33009935	     26.93150148	    -20.46876742	     -8.02951451	     16.33341620	     66.94312508
      3.49166670	    -30.68694974	     -1.37824488	      0.08433881	      0.06502440	      0.68537844	     -0.09304754	     88.19305663	    -11.23406793	     -3.66386497	     84.13946079	      1.46851062	     27.39161508	    -17.66760233	     -7.49999987	     88.01914911	     -7.81367850	      1.12031697	     85.43698937	      1.49115677	     25.74285508	    -18.10152293	     -7.49999987	    -52.37141923	      1.25215652	     -5.53361577	     22.89138580	     -9.19084505	    -68.21140546	     79.79491708	     60.46501874	     27.41264728	    -19.82892295	     -8.11798652	     15.41796438	     67.00837216
      3.49583330	    -30.68125218	     -1.41134830	      0.04790877	      0.06229970	      0.68748506	     -0.08809061	     88.14530098	    -11.13921864	     -3.74223174	     84.06821149	      1.46726709	     27.36593221	    -17.55719667	     -7.49999987	     88.03428897	     -7.87014179	      1.14925884	     85.47472475	      1.49181537	     25.77034196	    -17.86075216	     -7.49999987	    -52.70551506	      1.17764476	     -5.41272669	     22.70818281	     -7.94330758	    -67.40434916	     77.60254403	     60.68785867	     28.02818995	    -19.42908641	     -7.96387154	     15.04443217	     67.12397636
      3.50000000	    -30.51077045	     -1.40141974	      0.07551241	      0.06550212	      0.69040564	     -0.08801233	     87.76418779	    -11.13411705	     -3.87485811	     83.87316963	      1.46386296	     27.14676586	    -17.84055688	     -7.49999987	     87.60777688	     -7.86186904	      1.21462704	     85.12724833	      1.48575077	     25.54800464	    -17.49098073	     -7.49999987	    -53.37585798	      1.28132576	     -5.42242299	     22.74257726	     -6.43929176	    -66.38569961	     75.74310209	     60.74731910	     28.39771165	    -19.04784717	     -8.02428968	     15.51219375	     66.55869028
